<svg class="border shadow-md" viewBox="0 0 1202.08 676.17" style="width: 1202.08px; height: 676.17px;" xmlns="http://www.w3.org/2000/svg" preserveAspectRatio="none"><rect class="bg" id="bg" x="0" y="0" width="1202.08" height="676.17" fill="#ffffff"/><g transform="rotate(0 601.04 338.085)"><path d="M -701.04 -37.62 S -360.52 -71.43&#10;            0.00 -37.62 340.52 -71.43&#10;            701.04 -37.62 790.08 -71.43&#10;            1402.08 -37.62 1469.12 -81.62&#10;            2103.12 -37.62 h 110 V 876.17 H -701.04 Z" fill="#00823F" id="-1"/><path d="M -701.04 30.00 S -555.00 -3.81&#10;            0.00 30.00 106.04 -3.81&#10;            701.04 30.00 775.08 -3.81&#10;            1402.08 30.00 1742.60 -24.00&#10;            2103.12 30.00 h 110 V 876.17 H -701.04 Z" fill="#00763f" id="0"/><path id="1" d="M -701.04 97.62 S -360.52 47.62&#10;            0.00 97.62 340.52 63.81&#10;            701.04 97.62 1041.56 44.62&#10;            1402.08 97.62 1742.60 63.81&#10;            2103.12 97.62 h 110 V 876.17 H -701.04 Z" fill="#006a3f"/><path id="2" d="M -701.04 165.23 S -360.52 109.23&#10;            0.00 165.23 340.52 131.43&#10;            701.04 165.23 1041.56 131.43&#10;            1402.08 165.23 1742.60 131.43&#10;            2103.12 165.23 h 110 V 876.17 H -701.04 Z" fill="#005e3f"/><path id="3" d="M -701.04 232.85 S -360.52 199.04&#10;            0.00 232.85 138.04 197.85&#10;            701.04 232.85 833.08 199.04&#10;            1402.08 232.85 1742.60 199.04&#10;            2103.12 232.85 h 110 V 876.17 H -701.04 Z" fill="#00523f"/><path id="4" d="M -701.04 300.47 S -360.52 259.47&#10;            0.00 300.47 340.52 241.47&#10;            701.04 300.47 972.08 239.47&#10;            1402.08 300.47 1742.60 266.66&#10;            2103.12 300.47 h 110 V 876.17 H -701.04 Z" fill="#00463f"/><path id="5" d="M -701.04 368.08 S -389.00 317.08&#10;            0.00 368.08 94.04 334.28&#10;            701.04 368.08 945.08 314.08&#10;            1402.08 368.08 1420.12 303.08&#10;            2103.12 368.08 h 110 V 876.17 H -701.04 Z" fill="#003a3f"/><path id="6" d="M -701.04 435.70 S -360.52 401.89&#10;            0.00 435.70 213.04 386.70&#10;            701.04 435.70 952.08 401.89&#10;            1402.08 435.70 1473.12 401.89&#10;            2103.12 435.70 h 110 V 876.17 H -701.04 Z" fill="#002e3f"/><path id="7" d="M -701.04 503.32 S -360.52 441.32&#10;            0.00 503.32 340.52 469.51&#10;            701.04 503.32 893.08 438.32&#10;            1402.08 503.32 1742.60 467.32&#10;            2103.12 503.32 h 110 V 876.17 H -701.04 Z" fill="#00223f"/><path id="8" d="M -701.04 570.94 S -360.52 537.13&#10;            0.00 570.94 340.52 537.13&#10;            701.04 570.94 1041.56 517.94&#10;            1402.08 570.94 1742.60 537.13&#10;            2103.12 570.94 h 110 V 876.17 H -701.04 Z" fill="#00163f"/><path id="9" d="M -701.04 638.55 S -360.52 581.55&#10;            0.00 638.55 126.04 593.55&#10;            701.04 638.55 1041.56 604.74&#10;            1402.08 638.55 1742.60 601.55&#10;            2103.12 638.55 h 110 V 876.17 H -701.04 Z" fill="#000a3f"/></g></svg>